<?xml version="1.0" encoding="utf-8"?>
<!-- Generator: Adobe Illustrator 22.0.1, SVG Export Plug-In . SVG Version: 6.00 Build 0)  -->
<svg version="1.1" id="Capa_1" xmlns="http://www.w3.org/2000/svg" xmlns:xlink="http://www.w3.org/1999/xlink" x="0px" y="0px"
	 viewBox="0 0 455.7 455.7" style="enable-background:new 0 0 455.7 455.7;" xml:space="preserve">
<style type="text/css">
	.st0{fill:#C43235;}
</style>
<path class="st0" d="M0,0v455.7h455.7V0H0z M265.7,247c-7.8,51.2-46,80.5-95.4,80.5c-55.5,0-100.6-45-100.6-100.6
	c0-55.5,45-100.5,100.6-100.5c26.9,0,50.4,9.6,67.5,26.2L209,181.6c-9.8-9.8-23.1-15.1-38.7-15.1c-32.7,0-59.2,27.9-59.2,60.5
	c0,32.7,26.5,59.8,59.2,59.8c27.4,0,48.1-13.2,54.1-39.8h-54.1v-40.4h95.1c1.1,6.5,1.7,13.3,1.7,20.4
	C267.1,234,266.6,240.7,265.7,247z M386.4,234.5h-35.2v35.2h-25v-35.2h-35.2v-25h35.2v-35.2h25v35.2h35.2V234.5z"/>
</svg>
